<svg width="34.166504" height="34.166687" viewBox="0 0 34.1665 34.1667" fill="none" xmlns="http://www.w3.org/2000/svg" xmlns:xlink="http://www.w3.org/1999/xlink">
	<desc>
			Created with Pixso.
	</desc>
	<defs/>
	<path id="Vector" d="M17.08 34.16C7.64 34.16 0 26.51 0 17.08C0 7.64 7.64 0 17.08 0C26.51 0 34.16 7.64 34.16 17.08C34.15 26.51 26.51 34.15 17.08 34.16ZM9.78 21.84C9.56 21.84 9.34 21.87 9.12 21.92L8.87 21.99L7.85 23.73C7.67 24.03 7.61 24.4 7.69 24.76C7.77 25.11 7.98 25.42 8.28 25.62C8.58 25.82 8.94 25.89 9.3 25.83C9.65 25.77 9.97 25.58 10.19 25.29L10.29 25.13L11.64 22.79C11.42 22.5 11.14 22.26 10.81 22.09C10.49 21.93 10.13 21.84 9.76 21.84L9.78 21.84ZM19.15 11.37C18.62 11.87 18.26 12.53 18.14 13.25C17.95 14.24 18.14 15.27 18.66 16.14L23.85 25.13C24.03 25.44 24.32 25.66 24.66 25.76C25 25.87 25.36 25.84 25.68 25.68C26 25.53 26.24 25.26 26.37 24.93C26.5 24.59 26.49 24.23 26.36 23.9L26.28 23.73L24.91 21.35L26.95 21.35C27.3 21.35 27.64 21.21 27.9 20.97C28.16 20.72 28.32 20.39 28.34 20.03C28.36 19.68 28.25 19.33 28.02 19.05C27.79 18.78 27.47 18.6 27.12 18.55L26.95 18.54L23.29 18.54L19.54 12.05L19.15 11.37L19.15 11.37ZM7.27 18.53C7.09 18.53 6.91 18.57 6.74 18.64C6.57 18.71 6.41 18.81 6.29 18.94C6.16 19.07 6.05 19.23 5.98 19.4C5.91 19.57 5.88 19.75 5.88 19.93C5.88 20.64 6.41 21.24 7.11 21.33L7.28 21.34L20.06 21.34C20.2 21.05 20.27 20.74 20.27 20.42C20.26 20.11 20.18 19.79 20.03 19.51C19.9 19.25 19.71 19.03 19.47 18.86C19.24 18.69 18.96 18.58 18.67 18.54L18.47 18.53L14.11 18.53L20.14 8.09C20.32 7.77 20.37 7.39 20.28 7.02C20.21 6.77 20.07 6.54 19.88 6.36C19.69 6.18 19.45 6.06 19.19 6.01C18.94 5.96 18.67 5.98 18.43 6.07C18.18 6.16 17.96 6.32 17.8 6.53L17.7 6.69L17.08 7.77L16.47 6.69C16.28 6.38 16 6.16 15.66 6.05C15.32 5.95 14.95 5.98 14.63 6.14C14.32 6.29 14.07 6.56 13.94 6.9C13.82 7.23 13.82 7.59 13.95 7.92L14.03 8.09L15.45 10.59L10.87 18.53L7.27 18.53Z" fill="#FFFFFF" fill-opacity="1.000000" fill-rule="nonzero"/>
</svg>
