<svg width="30.783691" height="29.891541" viewBox="0 0 30.7837 29.8915" fill="none" xmlns="http://www.w3.org/2000/svg" xmlns:xlink="http://www.w3.org/1999/xlink">
	<desc>
			Created with Pixso.
	</desc>
	<defs/>
	<path id="Vector" d="M16.78 14.29L22.33 9.38L4.42 0.46C3.23 -0.11 2.12 -0.19 1.15 0.43L16.78 14.29ZM23.27 20.04L29.04 17.17C30.16 16.61 30.78 15.82 30.78 14.94C30.78 14.07 30.16 13.28 29.04 12.72L23.82 10.12L17.95 15.32L23.27 20.04ZM0.18 1.64C0.06 1.96 0 2.33 0 2.73L0 27.17C0 27.8 0.15 28.35 0.44 28.78L15.62 15.32L0.18 1.64ZM16.78 16.35L1.69 29.74C1.97 29.84 2.29 29.89 2.61 29.89C3.2 29.89 3.81 29.73 4.43 29.43L21.78 20.79L16.78 16.35Z" fill="#FFFFFF" fill-opacity="1.000000" fill-rule="nonzero"/>
</svg>
